<!-- Generated by Bolt -->
<svg xmlns="http://www.w3.org/2000/svg" viewBox="0 0 1024 1024" width="1024" height="1024">
  <!-- Background -->
  <rect width="1024" height="1024" rx="256" fill="#4834d4" />
  
  <!-- Subtle circular patterns -->
  <g opacity="0.1" fill="none" stroke="white">
    <circle cx="512" cy="512" r="360" strokeWidth="2" />
    <circle cx="512" cy="512" r="300" strokeWidth="2" />
    <circle cx="512" cy="512" r="240" strokeWidth="2" />
  </g>

  <!-- Document -->
  <g transform="translate(512 512) rotate(-15)">
    <rect 
      x="-180" 
      y="-240" 
      width="360" 
      height="480" 
      rx="30" 
      fill="white"
    />
    <g stroke="#4834d4" strokeWidth="16" strokeLinecap="round">
      <line x1="-120" y1="-160" x2="120" y2="-160" />
      <line x1="-120" y1="-80" x2="120" y2="-80" />
      <line x1="-120" y1="0" x2="120" y2="0" />
      <line x1="-120" y1="80" x2="60" y2="80" />
    </g>
  </g>

  <!-- Glowing dots and path -->
  <g>
    <circle cx="692" cy="312" r="24" fill="#a8e6cf" />
    <circle cx="832" cy="512" r="24" fill="#a8e6cf" />
    <circle cx="692" cy="712" r="24" fill="#a8e6cf" />
    
    <path
      d="M692 312 Q832 512 692 712"
      fill="none"
      stroke="#a8e6cf"
      strokeWidth="12"
      strokeDasharray="30,20"
      opacity="0.6"
    />
  </g>

  <!-- Small decorative crosses -->
  <g stroke="#dff9fb" strokeWidth="4" opacity="0.6">
    <path d="M760 372 L800 372 M780 352 L780 392" />
    <path d="M860 572 L900 572 M880 552 L880 592" />
    <path d="M760 652 L800 652 M780 632 L780 672" />
  </g>
</svg>